<svg width="300" height="300" viewBox="0 0 300 300" fill="none" xmlns="http://www.w3.org/2000/svg">
  <rect width="300" height="300" fill="#F3F4F6"/>
  <rect x="50" y="50" width="200" height="200" rx="8" fill="#E5E7EB"/>
  <path d="M150 100C133.431 100 120 113.431 120 130C120 146.569 133.431 160 150 160C166.569 160 180 146.569 180 130C180 113.431 166.569 100 150 100ZM150 140C143.373 140 138 134.627 138 128C138 121.373 143.373 116 150 116C156.627 116 162 121.373 162 128C162 134.627 156.627 140 150 140Z" fill="#9CA3AF"/>
  <path d="M150 180C142.386 180 135 187.386 135 195V200H165V195C165 187.386 157.614 180 150 180Z" fill="#9CA3AF"/>
</svg>
